<svg width="269" height="246" viewBox="0 0 269 246" fill="none" xmlns="http://www.w3.org/2000/svg">
<path d="M134.12 188.68C98.8201 188.57 71.72 163.79 71.72 122.69C71.72 81.59 98.8201 56.81 134.12 56.7V0C56.6201 0.1 0 51.01 0 122.69C0 194.37 56.02 245.37 133.63 245.37C133.8 245.37 133.96 245.37 134.13 245.37V188.69L134.12 188.68Z" fill="#F15B40"/>
<path d="M134.12 188.68C169.42 188.57 196.52 163.79 196.52 122.69C196.52 81.59 169.42 56.81 134.12 56.7V0C211.62 0.1 268.24 51.01 268.24 122.69C268.24 194.44 212.22 245.37 134.61 245.37C134.44 245.37 134.28 245.37 134.11 245.37V188.69L134.12 188.68Z" fill="#082340"/>
</svg>
